<svg height="481pt" viewBox="-53 0 481 481.72" width="481pt" xmlns="http://www.w3.org/2000/svg"><path d="m374.660156 89.71875c-.054687-43.875-32.425781-81.007812-75.882812-87.046875-43.457032-6.042969-84.726563 20.851563-96.75 63.046875h-93.113282l-14.398437-65.71875-15.632813 3.441406 13.648438 62.277344h-32.597656c-6.402344.003906-12.1875 3.820312-14.707032 9.707031l-11.886718 27.734375c-38.1875 89.160156-43.390625 189-14.679688 281.648438l28.359375 91.3125c1.050781 3.335937 4.144531 5.601562 7.640625 5.597656h208c3.496094.003906 6.589844-2.261719 7.640625-5.597656l28.359375-91.3125c21.035156-67.933594 23.96875-140.183594 8.503906-209.601563 39.5-9.550781 67.367188-44.847656 67.496094-85.488281zm-117.273437-8 11.890625 27.738281c4.34375 10.136719 8.207031 20.4375 11.664062 30.839844-9.203125-3.363281-17.414062-8.980469-23.882812-16.335937-10.75-12.445313-25.800782-20.375-42.144532-22.199219-.175781-4.042969-.253906-10.210938-.253906-12.042969.011719-2.671875.167969-5.34375.472656-8zm-58.328125 0c-.238282 2.65625-.398438 5.320312-.398438 8 0 2.097656.085938 8.136719.230469 12.519531-14.648437 2.855469-27.9375 10.496094-37.773437 21.722657-9.847657 9.445312-18.449219 17.597656-35.449219 18l-13.238281-60.242188zm-64.398438 168c-13.253906 0-24-10.742188-24-24 0-13.253906 10.746094-24 24-24s24 10.746094 24 24c0 13.257812-10.746094 24-24 24zm-38.609375-168 12.65625 57.601562c-8.066406-3.605468-15.300781-8.839843-21.246093-15.375-9.570313-10.828124-22.335938-18.335937-36.449219-21.441406l8.921875-20.785156zm160.714844 384h-196.210937l-7.445313-24h211.101563zm26.582031-85.664062-14.167968 45.664062h-221.039063l-14.167969-45.664062c-26.65625-86.082032-22.859375-178.71875 10.75-262.335938 12.398438 1.800781 23.6875 8.140625 31.679688 17.785156 9.511718 10.753906 22.164062 18.246094 36.167968 21.417969l7 31.839844c-17.597656 7.28125-27.621093 25.964843-23.957031 44.65625 3.664063 18.6875 20 32.203125 39.046875 32.300781.632813 0 1.214844-.160156 1.832032-.183594l30.351562 137.90625 15.632812-3.441406-30.464843-138.398438c16.710937-7.996093 25.710937-26.445312 21.722656-44.535156-3.984375-18.089844-19.910156-31.050781-38.433594-31.273437l-6.160156-28c16.683594-1.574219 32.109375-9.542969 43.054687-22.234375 10.128907-9.71875 18.871094-18.109375 36.863282-18.109375 17.992187 0 26.753906 8.390625 36.890625 18.109375 10.359375 11.925781 24.65625 19.742187 40.285156 22.027344 20.53125 72.878906 19.527344 150.144531-2.886719 222.46875zm20-220.351563c-5.0625-19.296875-11.535156-38.195313-19.367187-56.542969l-11.886719-27.734375c-2.519531-5.886719-8.304688-9.703125-14.707031-9.707031h-4.421875c.046875-2.835938-1.429688-5.480469-3.871094-6.925781l-6.929688-4c-3.828124-2.210938-8.71875-.898438-10.929687 2.925781-1.402344 2.496094-1.347656 5.558594.144531 8h-12.542968c11.464843-32.546875 44.414062-52.382812 78.542968-47.285156 34.132813 5.097656 59.84375 33.695312 61.300782 68.171875 1.457031 34.476562-21.753907 65.140625-55.332032 73.097656zm0 0"/><path d="m265.585938 37.222656c-1.417969-2.496094-4.0625-4.039062-6.933594-4.042968-2.871094-.007813-5.527344 1.523437-6.957032 4.015624-1.429687 2.488282-1.414062 5.550782.035157 8.027344l4 6.929688c2.226562 3.792968 7.09375 5.082031 10.902343 2.882812 3.808594-2.199218 5.128907-7.058594 2.953126-10.882812zm0 0"/><path d="m286.660156 25.71875c-4.417968 0-8 3.582031-8 8v8c0 4.417969 3.582032 8 8 8 4.417969 0 8-3.582031 8-8v-8c0-4.417969-3.582031-8-8-8zm0 0"/><path d="m306.660156 55.078125c1.839844 1.058594 4.027344 1.34375 6.078125.789063 2.050781-.558594 3.792969-1.90625 4.847657-3.746094l4-6.929688c1.453124-2.476562 1.46875-5.539062.039062-8.03125-1.429688-2.488281-4.085938-4.019531-6.957031-4.015625-2.871094.007813-5.515625 1.550781-6.9375 4.046875l-4 6.929688c-1.070313 1.839844-1.363281 4.03125-.8125 6.085937.550781 2.058594 1.894531 3.8125 3.742187 4.871094zm0 0"/><path d="m321.308594 69.71875c2.207031 3.824219 7.09375 5.132812 10.917968 2.929688l6.929688-4c3.792969-2.222657 5.082031-7.09375 2.882812-10.902344-2.199218-3.808594-7.058593-5.128906-10.882812-2.953125l-6.929688 4c-3.820312 2.210937-5.128906 7.101562-2.917968 10.925781zm0 0"/><path d="m342.660156 81.71875h-8c-4.417968 0-8 3.582031-8 8s3.582032 8 8 8h8c4.417969 0 8-3.582031 8-8s-3.582031-8-8-8zm0 0"/><path d="m339.15625 110.792969-6.929688-4c-3.820312-2.175781-8.683593-.855469-10.882812 2.953125-2.195312 3.808594-.910156 8.679687 2.882812 10.902344l6.929688 4c3.824219 2.171874 8.683594.851562 10.882812-2.953126 2.199219-3.808593.910157-8.679687-2.882812-10.902343zm0 0"/><path d="m317.585938 127.320312c-2.222657-3.792968-7.089844-5.082031-10.898438-2.882812s-5.128906 7.058594-2.957031 10.882812l4 6.9375c2.226562 3.792969 7.09375 5.078126 10.902343 2.878907 3.808594-2.199219 5.128907-7.058594 2.953126-10.878907zm0 0"/><path d="m84.316406 270.808594c-3.175781-3-8.140625-3-11.3125 0l-45.257812 45.253906c-3.121094 3.125-3.121094 8.191406 0 11.3125l45.257812 45.257812c3.125 3.121094 8.1875 3.121094 11.3125 0l45.253906-45.257812c3.125-3.121094 3.125-8.1875 0-11.3125zm-5.65625 84.855468-33.945312-33.945312 33.945312-33.941406 33.945313 33.941406zm0 0"/><path d="m196.738281 222.441406c2.113281-.03125 4.125-.894531 5.601563-2.402344l28.320312-28.238281 11.28125 11.277344c3.175782 3.042969 8.183594 3.042969 11.359375 0 3.101563-3.117187 3.101563-8.15625 0-11.277344l-16.960937-16.960937c-3.175782-3.039063-8.183594-3.039063-11.359375 0l-33.921875 33.921875c-3.101563 3.117187-3.101563 8.15625 0 11.277343 1.496094 1.527344 3.542968 2.390626 5.679687 2.402344zm0 0"/><path d="m281.539062 220.039062c-3.144531-3.042968-8.132812-3.042968-11.277343 0l-39.601563 39.601563c-3.160156-3.003906-8.121094-3.003906-11.28125 0-1.535156 1.492187-2.398437 3.539063-2.398437 5.679687 0 2.140626.863281 4.1875 2.398437 5.679688l5.601563 5.601562c1.488281 1.539063 3.539062 2.40625 5.679687 2.40625s4.191406-.867187 5.679688-2.40625l45.199218-45.195312c1.535157-1.488281 2.402344-3.539062 2.402344-5.679688 0-2.136718-.867187-4.1875-2.402344-5.679687zm0 0"/><path d="m254.660156 305.71875h-64c-4.417968 0-8 3.582031-8 8v64c0 4.417969 3.582032 8 8 8h64c4.417969 0 8-3.582031 8-8v-64c0-4.417969-3.582031-8-8-8zm-8 64h-48v-48h48zm0 0"/><path d="m198.660156 233.71875c0 4.417969-3.582031 8-8 8-4.417968 0-8-3.582031-8-8s3.582032-8 8-8c4.417969 0 8 3.582031 8 8zm0 0"/></svg>