<?xml version="1.0" encoding="iso-8859-1"?>
<!-- Generator: Adobe Illustrator 21.0.0, SVG Export Plug-In . SVG Version: 6.00 Build 0)  -->
<svg xmlns="http://www.w3.org/2000/svg" xmlns:xlink="http://www.w3.org/1999/xlink" version="1.1" id="Capa_1" x="0px" y="0px" viewBox="0 0 511.5 511.5" style="enable-background:new 0 0 511.5 511.5;" xml:space="preserve" width="512" height="512">
<g>
	<polygon points="266.56,273.169 266.56,329.94 281.56,329.94 281.56,278.412 466.55,46.1 197.75,46.1 197.75,61.1 435.431,61.1     "/>
	<polygon points="281.56,349.94 266.56,349.94 266.56,459.214 339.78,479.374 339.78,496.5 171.72,496.5 171.72,479.374    244.94,459.214 244.94,386 229.94,386 229.94,447.786 156.72,467.946 156.72,511.5 354.78,511.5 354.78,467.946 281.56,447.786     "/>
	<path d="M44.95,46.1l184.99,232.312V366h15v-92.832L76.069,61.1h46.744l19.689,19.688h-31.33L255.75,262.351L400.329,80.789   H163.715L144.026,61.1h33.724v-15h-48.724l-17.202-17.202C118.151,15.408,108.216,0,93.441,0C82.241,0,73.128,9.112,73.128,20.313   c0,14.256,14.42,24.171,27.772,18.875l6.912,6.912H44.95z M157.502,95.789l46.145,46.145c-4.305,6.209-6.977,13.631-7.374,21.646   l-53.982-67.79H157.502z M237.99,192.441c-14.761,0-26.771-12.009-26.771-26.771c0-14.761,12.009-26.771,26.771-26.771   s26.771,12.009,26.771,26.771C264.76,180.432,252.751,192.441,237.99,192.441z M369.209,95.789L255.75,238.271l-25.071-31.484   c11.031,1.956,22.082-0.558,31.047-6.774l8.327,8.327l10.606-10.606l-8.327-8.327c26.211-37.806-20.106-84.408-58.08-58.08   l-35.538-35.538H369.209z M88.128,20.313c0-7.031,10.625-7.024,10.625,0C98.754,27.344,88.128,27.336,88.128,20.313z"/>
	<rect x="279.453" y="110.789" width="15" height="15"/>
	<rect x="309.453" y="110.789" width="14.917" height="15"/>
</g>















</svg>
