<svg height="479pt" viewBox="0 -15 479.68511 479" width="479pt" xmlns="http://www.w3.org/2000/svg"><path d="m408 .34375c-36.644531.046875-67.421875 27.585938-71.527344 64h-336.472656v8c.0234375 21.007812 4.015625 41.824219 11.769531 61.351562 0 .121094 0 .246094.085938.367188.089843.121094.183593.390625.265625.601562 1.101562 2.75 2.320312 5.4375 3.566406 8.117188.90625 1.953125 1.832031 3.890625 2.792969 5.792969 1.078125 2.113281 2.167969 4.199219 3.335937 6.257812 1.839844 3.285157 3.800782 6.480469 5.839844 9.597657.464844.703124.878906 1.441406 1.351562 2.144531 24.246094 36.058593 61.628907 61.210937 104.167969 70.082031.945313.199219 1.902344.359375 2.855469.542969 4.082031.800781 8.199219 1.40625 12.367188 1.894531 1.335937.152344 2.65625.328125 4 .449219 5.152343.472656 10.34375.800781 15.601562.800781h24v160h-56c-22.082031.023438-39.972656 17.917969-40 40v8h240v-8c-.027344-22.082031-17.917969-39.976562-40-40h-56v-160h24c5.289062 0 10.503906-.320312 15.679688-.800781 1.289062-.121094 2.558593-.289063 3.832031-.441407 4.300781-.488281 8.542969-1.136718 12.726562-1.941406.800781-.160156 1.65625-.304687 2.472657-.472656 42.730468-8.832031 80.269531-34.117188 104.503906-70.402344.167968-.246094.3125-.519531.480468-.796875 2.324219-3.53125 4.53125-7.160156 6.617188-10.882812 1.34375-2.398438 2.558594-4.800781 3.792969-7.253907.574219-1.160156 1.183593-2.296874 1.734375-3.472656 37.871094-4.316406 65.816406-37.402344 63.738281-75.464844-2.078125-38.058593-33.460937-67.90625-71.578125-68.070312zm7.792969 80c-.757813 14.410156-3.574219 28.640625-8.367188 42.253906-8.988281 1.4375-17.875 3.457032-26.601562 6.039063-17.753907 5.496093-36.277344 8.097656-54.855469 7.707031-18.582031.390625-37.101562-2.210938-54.855469-7.707031-19.160156-5.882813-39.132812-8.683594-59.167969-8.292969-20.03125-.390625-39.996093 2.410156-59.144531 8.292969-17.738281 5.496093-36.246093 8.097656-54.808593 7.707031-18.597657.386719-37.132813-2.214844-54.902344-7.707031-5.601563-1.597657-11.355469-3.148438-17.96875-4.519531-1.402344-3.847657-2.578125-7.789063-3.664063-11.773438h74.542969v-16h-78.054688c-.859374-5.300781-1.441406-10.640625-1.738281-16zm-119.792969 336c10.167969.011719 19.230469 6.417969 22.632812 16h-205.265624c3.402343-9.582031 12.464843-15.988281 22.632812-16zm-72-16h-16v-160h16zm-56-176c-4.574219 0-9.089844-.265625-13.601562-.664062-1.09375-.097657-2.183594-.226563-3.269532-.335938-4-.449219-8-1.015625-11.953125-1.777344-.382812-.070312-.800781-.121094-1.152343-.199218-41.871094-8.511719-78.242188-34.210938-100.253907-70.832032-.914062-1.527344-1.761719-3.105468-2.625-4.671875-.601562-1.089843-1.160156-2.199219-1.746093-3.304687 1.792968.488281 3.570312.984375 5.371093 1.488281 19.175781 5.882813 39.167969 8.683594 59.222657 8.296875 20.027343.386719 39.988281-2.414062 59.136718-8.296875 17.738282-5.496094 36.246094-8.09375 54.816406-7.703125 18.578126-.390625 37.09375 2.210938 54.847657 7.703125 19.160156 5.886719 39.132812 8.6875 59.175781 8.296875 20.046875.390625 40.03125-2.410156 59.199219-8.296875 4.800781-1.351563 9.519531-2.671875 14.6875-3.824219-.597657 1.183594-1.230469 2.351563-1.855469 3.519532-1.28125 2.398437-2.585938 4.800781-4 7.136718-1.984375 3.273438-4.046875 6.496094-6.273438 9.601563-.359374.511719-.742187 1.007812-1.109374 1.511719-22.402344 30.648437-55.449219 51.824218-92.65625 59.375-.375.070312-.761719.121093-1.136719.191406-3.945313.761718-7.953125 1.328125-12 1.785156-1.0625.109375-2.121094.238281-3.199219.328125-4.496094.40625-9.039062.671875-13.601562.671875zm254.96875-98.089844c5.949219-17.351562 9-35.566406 9.03125-53.910156v-8h-79.359375c3.960937-27.691406 27.742187-48.210938 55.714844-48.070312 27.96875.136718 51.546875 20.894531 55.234375 48.621093 3.683594 27.726563-13.65625 53.921875-40.621094 61.359375zm0 0"/><path d="m112 96.34375h16v16h-16zm0 0"/><path d="m144 96.34375h24v16h-24zm0 0"/><path d="m342.65625 180.78125c2.398438-3.613281 1.449219-8.484375-2.128906-10.933594-3.605469-2.46875-8.523438-1.613281-11.085938 1.925782-.152344.199218-15.671875 20.570312-73.441406 20.570312-4.417969 0-8 3.582031-8 8s3.582031 8 8 8c66.398438 0 84.800781-24.746094 86.65625-27.5625zm0 0"/><path d="m224 192.34375h-16c-4.417969 0-8 3.582031-8 8s3.582031 8 8 8h16c4.417969 0 8-3.582031 8-8s-3.582031-8-8-8zm0 0"/></svg>