<?xml version="1.0" encoding="iso-8859-1"?>
<!-- Generator: Adobe Illustrator 19.0.0, SVG Export Plug-In . SVG Version: 6.00 Build 0)  -->
<svg version="1.1" id="Capa_1" xmlns="http://www.w3.org/2000/svg" xmlns:xlink="http://www.w3.org/1999/xlink" x="0px" y="0px"
	 viewBox="0 0 512 512" style="enable-background:new 0 0 512 512;" xml:space="preserve">
<g>
	<g>
		<path d="M384,0H128c-5.523,0-10,4.477-10,10v154c0,5.523,4.477,10,10,10s10-4.477,10-10V20h34.751
			C160.558,38.016,154,59.242,154,81.478c0,29.382,11.442,57.006,32.218,77.782c21.445,21.444,49.613,32.167,77.782,32.167
			c8.147,0,16.292-0.903,24.276-2.696c-3.738,1.771-7.184,4.191-10.196,7.203l-43.111,43.11c-14.23,14.231-14.23,37.387,0,51.619
			l33.493,33.493h-7.568c-20.126,0-36.5,16.374-36.5,36.5V421.5c0,5.936,1.434,11.541,3.959,16.5H168c-16.542,0-30-13.458-30-30
			V248.084c0-5.523-4.477-10-10-10s-10,4.477-10,10V482c0,16.542,13.458,30,30,30h216c16.542,0,30-13.458,30-30V10
			C394,4.477,389.523,0,384,0z M210.261,86.496c-1.137-12.286,1.92-24.882,9.152-35.464l26.035,26.036L210.261,86.496z
			 M248.53,96.947l-8.78,32.767c-5.027-2.522-9.744-5.863-13.934-10.053c-4.19-4.189-7.531-8.907-10.053-13.934L248.53,96.947z
			 M200.361,145.117C183.362,128.119,174,105.518,174,81.478c0-20.674,6.925-40.285,19.675-56.183l11.419,11.419
			c-14.201,18.663-18.344,42.568-12.432,64.3c0.037,0.174,0.065,0.348,0.112,0.521c0.049,0.182,0.114,0.356,0.172,0.533
			c3.348,11.627,9.584,22.591,18.728,31.736c9.143,9.143,20.106,15.378,31.731,18.727c0.179,0.059,0.354,0.124,0.538,0.174
			c0.136,0.036,0.272,0.051,0.408,0.081c6.423,1.758,13.034,2.658,19.649,2.658c15.798,0,31.586-5.032,44.764-15.059l11.414,11.414
			C284.875,180.044,233.062,177.819,200.361,145.117z M258.982,135.217l9.428-35.187l26.036,26.036
			C283.864,133.297,271.268,136.354,258.982,135.217z M249.112,276.521c-6.433-6.434-6.433-16.902,0-23.335l43.11-43.11
			c3.116-3.117,7.26-4.833,11.667-4.833s8.551,1.716,11.667,4.833l43.11,43.11c6.434,6.433,6.434,16.901,0,23.334l-43.111,43.11
			c-2.353,2.353-5.293,3.905-8.489,4.525h-6.356c-3.194-0.62-6.134-2.172-8.488-4.525L249.112,276.521z M244.395,360.656
			c0-9.098,7.402-16.5,16.5-16.5h38.306c1.544,0.197,3.107,0.307,4.689,0.307c1.581,0,3.145-0.11,4.689-0.307h13.16
			c9.098,0,16.5,7.402,16.5,16.5V421.5c0,9.098-7.402,16.5-16.5,16.5h-60.844c-9.098,0-16.5-7.402-16.5-16.5V360.656z M374,482
			c0,5.514-4.486,10-10,10H148c-5.514,0-10-4.486-10-10v-34.027c8.363,6.292,18.753,10.027,30,10.027h176
			c11.247,0,21.637-3.735,30-10.027V482z M374,408c0,12.534-7.729,23.291-18.669,27.771c1.871-4.386,2.908-9.21,2.908-14.271
			v-60.844c0-14.958-9.048-27.837-21.955-33.468l36.526-36.525c0.408-0.408,0.804-0.826,1.19-1.25V408z M374,54h-70.11
			c-5.523,0-10,4.477-10,10s4.477,10,10,10H374v166.293c-0.387-0.424-0.782-0.842-1.191-1.25l-43.11-43.109
			c-6.894-6.894-16.06-10.691-25.81-10.691c-1.382,0-2.75,0.085-4.103,0.235c15.353-5.256,29.768-13.991,41.996-26.218
			c3.905-3.905,3.905-10.237,0-14.143l-25.451-25.451c-0.002-0.002-0.003-0.003-0.005-0.005c-0.002-0.002-0.003-0.003-0.005-0.005
			l-90.5-90.5c-0.002-0.002-0.003-0.003-0.005-0.005c-0.002-0.002-0.003-0.003-0.005-0.005L216.665,20H374V54z"/>
	</g>
</g>
<g>
	<g>
		<path d="M135.07,199.93c-1.86-1.86-4.44-2.93-7.07-2.93s-5.21,1.07-7.07,2.93S118,204.37,118,207s1.07,5.21,2.93,7.07
			S125.37,217,128,217s5.21-1.07,7.07-2.93S138,209.63,138,207S136.93,201.79,135.07,199.93z"/>
	</g>
</g>
<g>
	<g>
		<path d="M171.07,263.55c-1.86-1.87-4.44-2.93-7.07-2.93s-5.21,1.06-7.07,2.93c-1.86,1.86-2.93,4.43-2.93,7.07
			c0,2.63,1.07,5.21,2.93,7.07c1.86,1.86,4.44,2.93,7.07,2.93s5.21-1.07,7.07-2.93s2.93-4.44,2.93-7.07
			C174,267.98,172.93,265.41,171.07,263.55z"/>
	</g>
</g>
<g>
	<g>
		<path d="M217.33,312.43c-1.86-1.86-4.44-2.93-7.07-2.93s-5.21,1.07-7.07,2.93s-2.93,4.44-2.93,7.07s1.07,5.21,2.93,7.07
			c1.86,1.86,4.44,2.93,7.07,2.93s5.21-1.07,7.07-2.93c1.87-1.86,2.93-4.44,2.93-7.07S219.2,314.29,217.33,312.43z"/>
	</g>
</g>
<g>
	<g>
		<path d="M180.09,384.01c-1.86-1.86-4.44-2.93-7.07-2.93c-2.63,0-5.21,1.07-7.07,2.93c-1.86,1.86-2.93,4.44-2.93,7.07
			s1.07,5.21,2.93,7.07c1.86,1.86,4.44,2.93,7.07,2.93s5.21-1.07,7.07-2.93s2.93-4.44,2.93-7.07S181.95,385.87,180.09,384.01z"/>
	</g>
</g>
<g>
	<g>
		<path d="M192.78,199.93c-1.86-1.86-4.43-2.93-7.07-2.93c-2.63,0-5.21,1.07-7.07,2.93c-1.86,1.86-2.93,4.44-2.93,7.07
			s1.07,5.21,2.93,7.07s4.44,2.93,7.07,2.93c2.64,0,5.21-1.07,7.07-2.93c1.87-1.86,2.93-4.44,2.93-7.07S194.65,201.79,192.78,199.93
			z"/>
	</g>
</g>
<g>
</g>
<g>
</g>
<g>
</g>
<g>
</g>
<g>
</g>
<g>
</g>
<g>
</g>
<g>
</g>
<g>
</g>
<g>
</g>
<g>
</g>
<g>
</g>
<g>
</g>
<g>
</g>
<g>
</g>
</svg>
